<svg xmlns="http://www.w3.org/2000/svg" width="24.944" height="24.944" viewBox="0 0 24.944 24.944">
  <path id="ic_monetization_on_24px" d="M14.472,2A12.472,12.472,0,1,0,26.944,14.472,12.477,12.477,0,0,0,14.472,2Zm1.759,20.068V24.45H12.9V22.043c-2.133-.449-3.941-1.821-4.078-4.241h2.445c.125,1.31,1.023,2.332,3.305,2.332,2.445,0,2.993-1.222,2.993-1.983,0-1.035-.549-2.008-3.33-2.669-3.093-.748-5.213-2.02-5.213-4.577,0-2.145,1.734-3.542,3.879-4V4.494h3.33V6.926a4.409,4.409,0,0,1,3.555,4.228H17.341c-.062-1.384-.8-2.332-2.769-2.332-1.871,0-2.993.848-2.993,2.045,0,1.048.811,1.734,3.33,2.382s5.213,1.734,5.213,4.877c-.012,2.282-1.721,3.53-3.891,3.941Z" transform="translate(-2 -2)" fill="#73889b"/>
</svg>
