<svg xmlns="http://www.w3.org/2000/svg" width="19.989" height="20.067" viewBox="0 0 19.989 20.067">
  <path id="ic_settings_24px" d="M19.9,13.017a7.639,7.639,0,0,0,.072-.983,7.639,7.639,0,0,0-.072-.983l2.168-1.656a.5.5,0,0,0,.123-.642L20.138,5.281a.522.522,0,0,0-.627-.221l-2.558,1a7.552,7.552,0,0,0-1.736-.983l-.39-2.659a.5.5,0,0,0-.5-.421h-4.11a.5.5,0,0,0-.5.421L9.318,5.08a7.942,7.942,0,0,0-1.736.983l-2.558-1a.507.507,0,0,0-.627.221L2.342,8.753a.487.487,0,0,0,.123.642L4.633,11.05a7.773,7.773,0,0,0-.072.983,7.773,7.773,0,0,0,.072.983L2.465,14.672a.5.5,0,0,0-.123.642L4.4,18.786a.522.522,0,0,0,.627.221l2.558-1a7.552,7.552,0,0,0,1.736.983l.39,2.659a.5.5,0,0,0,.5.421h4.11a.5.5,0,0,0,.5-.421l.39-2.659A7.942,7.942,0,0,0,16.953,18l2.558,1a.507.507,0,0,0,.627-.221l2.055-3.472a.5.5,0,0,0-.123-.642Zm-7.634,2.528a3.513,3.513,0,1,1,3.6-3.512A3.559,3.559,0,0,1,12.267,15.545Z" transform="translate(-2.271 -2)" fill="#748a9d"/>
</svg>
